<svg width="210" height="40" viewBox="0 0 210 40" fill="none" xmlns="http://www.w3.org/2000/svg">
<path d="M5.99998 11V21.55C5.23689 21.1094 4.34968 20.9332 3.47613 21.0486C2.60258 21.164 1.79158 21.5646 1.16907 22.1882C0.546563 22.8118 0.147388 23.6235 0.0335364 24.4973C-0.0803153 25.371 0.0975274 26.2579 0.539446 27.0202C0.981364 27.7825 1.66263 28.3776 2.47744 28.713C3.29225 29.0484 4.195 29.1054 5.04551 28.8751C5.89602 28.6448 6.64668 28.1401 7.18093 27.4393C7.71517 26.7386 8.00309 25.8811 7.99998 25V15H12V11M3.99998 27C3.60442 27 3.21774 26.8827 2.88884 26.6629C2.55994 26.4432 2.3036 26.1308 2.15222 25.7654C2.00085 25.3999 1.96124 24.9978 2.03841 24.6098C2.11558 24.2219 2.30606 23.8655 2.58577 23.5858C2.86547 23.3061 3.22184 23.1156 3.6098 23.0384C3.99776 22.9613 4.3999 23.0009 4.76535 23.1522C5.1308 23.3036 5.44316 23.56 5.66292 23.8889C5.88268 24.2178 5.99998 24.6044 5.99998 25C5.99998 25.5304 5.78927 26.0391 5.41419 26.4142C5.03912 26.7893 4.53041 27 3.99998 27Z" fill="white"/>
<path d="M15.6009 20C15.0521 20.5215 14.3022 20.8847 13.4672 21.0333C13.5196 20.8648 13.5045 20.6875 13.424 20.5262C13.3434 20.3648 13.2014 20.2275 13.0178 20.1333C12.8342 20.0391 12.6181 19.9929 12.3998 20.0009C12.1815 20.009 11.9718 20.071 11.7999 20.1782C11.6281 20.2855 11.5028 20.4327 11.4414 20.5993C11.38 20.7659 11.3856 20.9436 11.4575 21.1075C11.5294 21.2714 11.664 21.4134 11.8424 21.5136C12.0208 21.6139 12.2342 21.6674 12.4528 21.6667H12.6207C13.4952 21.6657 14.3497 21.4589 15.0762 21.0722L14.1318 23.3889C13.5911 23.8796 12.8687 24.2219 12.068 24.3667C12.1205 24.1982 12.1054 24.0209 12.0248 23.8595C11.9443 23.6982 11.8023 23.5608 11.6187 23.4666C11.435 23.3725 11.219 23.3262 11.0007 23.3342C10.7823 23.3423 10.5726 23.4043 10.4008 23.5116C10.229 23.6188 10.1036 23.7661 10.0422 23.9326C9.98085 24.0992 9.9865 24.2769 10.0584 24.4408C10.1303 24.6047 10.2649 24.7467 10.4433 24.847C10.6217 24.9472 10.8351 25.0007 11.0537 25H11.2216C12.0961 24.9991 12.9506 24.7922 13.677 24.4056L11.4034 30H12.8026L17 20H15.6009Z" fill="white"/>
<path d="M25.8672 26.293C25.3398 26.2734 24.8906 26.0879 24.5195 25.7363C24.1484 25.3652 23.9531 24.916 23.9336 24.3887V17.0938C23.9531 15.707 24.1484 14.3984 24.5195 13.168C24.9102 11.9375 25.5449 10.9023 26.4238 10.0625C27.3223 9.20312 28.4551 8.73437 29.8223 8.65625H41.1309C41.6582 8.67578 42.0977 8.87109 42.4492 9.24219C42.8203 9.59375 43.0156 10.0332 43.0352 10.5605C43.0352 11.1074 42.8496 11.5762 42.4785 11.9668C42.127 12.3574 41.6777 12.5625 41.1309 12.582H30.8184C30.0762 12.6211 29.4609 12.9043 28.9727 13.4316C28.4844 13.959 28.1719 14.5645 28.0352 15.248C27.918 15.9121 27.8691 16.6445 27.8887 17.4453V24.3887C27.8691 24.9355 27.6641 25.3945 27.2734 25.7656C26.8828 26.1172 26.4141 26.293 25.8672 26.293ZM29.2656 18.5879C29.2656 18.041 29.4609 17.582 29.8516 17.2109C30.2227 16.8203 30.6816 16.625 31.2285 16.625H41.1309C41.6777 16.625 42.1367 16.8203 42.5078 17.2109C42.8984 17.582 43.0938 18.041 43.0938 18.5879C43.0938 19.1348 42.9082 19.6035 42.5371 19.9941C42.1465 20.3652 41.6777 20.5508 41.1309 20.5508H31.2285C30.6816 20.5508 30.2129 20.3652 29.8223 19.9941C29.4512 19.6035 29.2656 19.1348 29.2656 18.5879ZM62.1367 24.3887V17.3281C62.1367 16.8398 61.8828 16.5859 61.375 16.5664H51.1211C50.75 16.5859 50.4277 16.752 50.1543 17.0645C49.8809 17.3574 49.6758 17.709 49.5391 18.1191C49.4219 18.5098 49.3633 18.9102 49.3633 19.3203C49.3633 19.7109 49.4219 20.1113 49.5391 20.5215C49.6758 20.9121 49.8809 21.2637 50.1543 21.5762C50.4277 21.8691 50.75 22.0156 51.1211 22.0156H58.6211C59.168 22.0156 59.627 22.2109 59.998 22.6016C60.3887 22.9727 60.584 23.4316 60.584 23.9785C60.584 24.5254 60.3887 24.9844 59.998 25.3555C59.627 25.7461 59.168 25.9414 58.6211 25.9414H51.2383C49.8711 25.9219 48.7383 25.541 47.8398 24.7988C46.9609 24.0371 46.3262 23.1875 45.9355 22.25C45.5645 21.293 45.3789 20.3066 45.3789 19.291C45.3789 18.3145 45.5742 17.3574 45.9648 16.4199C46.3555 15.4629 46.9902 14.6133 47.8691 13.8711C48.748 13.1094 50.0469 12.6992 51.7656 12.6406H64.0703C64.6172 12.6406 65.0859 12.8262 65.4766 13.1973C65.8672 13.5488 66.0723 13.998 66.0918 14.5449V24.3887C66.0918 24.9355 65.8867 25.3945 65.4766 25.7656C65.0859 26.1172 64.6172 26.293 64.0703 26.293C62.8984 26.1953 62.2539 25.5605 62.1367 24.3887ZM79.2168 26.4395C78.2012 26.4395 77.1953 26.3223 76.1992 26.0879C75.2227 25.8535 74.2852 25.5117 73.3867 25.0625C72.4883 24.5938 71.6973 23.9785 71.0137 23.2168C70.3301 22.4551 69.959 21.5469 69.9004 20.4922V19.2617V14.252C69.9004 13.7051 70.0957 13.2559 70.4863 12.9043C70.8965 12.5332 71.375 12.3477 71.9219 12.3477C73.0938 12.4453 73.7285 13.0801 73.8262 14.252V15.541V19.584C73.8652 20.1895 74.0898 20.6973 74.5 21.1074C74.9297 21.498 75.3984 21.8105 75.9062 22.0449C76.4336 22.2793 76.9707 22.4551 77.5176 22.5723C78.084 22.6895 78.6504 22.748 79.2168 22.748C79.7832 22.748 80.3398 22.6895 80.8867 22.5723C81.4531 22.4551 81.9902 22.2793 82.498 22.0449C83.0254 21.8105 83.4941 21.498 83.9043 21.1074C84.334 20.6973 84.5684 20.1895 84.6074 19.584V15.541V14.252C84.6074 13.7051 84.8027 13.2559 85.1934 12.9043C85.6035 12.5332 86.082 12.3477 86.6289 12.3477C87.8008 12.4453 88.4453 13.0801 88.5625 14.252V19.2617V20.4922C88.5039 21.5469 88.123 22.4551 87.4199 23.2168C86.7363 23.9785 85.9453 24.5938 85.0469 25.0625C84.1484 25.5117 83.2012 25.8535 82.2051 26.0879C81.2285 26.3223 80.2324 26.4395 79.2168 26.4395ZM108.748 17.3281C108.748 16.8398 108.494 16.5859 107.986 16.5664H97.7324C97.3613 16.5859 97.0391 16.752 96.7656 17.0645C96.4922 17.3574 96.2871 17.709 96.1504 18.1191C96.0332 18.5098 95.9746 18.9102 95.9746 19.3203C95.9746 19.7109 96.0332 20.1113 96.1504 20.5215C96.2871 20.9121 96.4922 21.2637 96.7656 21.5762C97.0391 21.8691 97.3613 22.0156 97.7324 22.0156H105.232C105.779 22.0156 106.238 22.2109 106.609 22.6016C107 22.9727 107.195 23.4316 107.195 23.9785C107.195 24.5254 107 24.9844 106.609 25.3555C106.238 25.7461 105.779 25.9414 105.232 25.9414H97.8496C96.4824 25.9219 95.3496 25.541 94.4512 24.7988C93.5723 24.0371 92.9375 23.1875 92.5469 22.25C92.1758 21.293 91.9902 20.3066 91.9902 19.291C91.9902 18.3145 92.1855 17.3574 92.5762 16.4199C92.9668 15.4629 93.6016 14.6133 94.4805 13.8711C95.3594 13.1094 96.6582 12.6992 98.377 12.6406H110.682C111.229 12.6406 111.697 12.8262 112.088 13.1973C112.479 13.5488 112.684 13.998 112.703 14.5449V23.8027C112.703 25.3652 112.488 26.8398 112.059 28.2266C111.668 29.457 111.023 30.4922 110.125 31.332C109.246 32.1914 108.123 32.6602 106.756 32.7383H96.6191C96.0918 32.7188 95.6426 32.5234 95.2715 32.1523C94.9199 31.8008 94.7344 31.3613 94.7148 30.834C94.7148 30.2871 94.8906 29.8184 95.2422 29.4277C95.6133 29.0371 96.0723 28.832 96.6191 28.8125H105.76C106.502 28.7734 107.117 28.4902 107.605 27.9629C108.094 27.4355 108.406 26.8203 108.543 26.1172C108.68 25.4141 108.748 24.5059 108.748 23.3926V17.3281ZM122.664 25.9414C120.945 25.8828 119.646 25.4824 118.768 24.7402C117.889 23.9785 117.254 23.1289 116.863 22.1914C116.473 21.2344 116.277 20.2676 116.277 19.291C116.277 18.2754 116.463 17.2988 116.834 16.3613C117.225 15.4043 117.859 14.5547 118.738 13.8125C119.637 13.0508 120.77 12.6602 122.137 12.6406H133.27C133.816 12.6406 134.275 12.8262 134.646 13.1973C135.037 13.5488 135.232 13.9785 135.232 14.4863C135.232 15.0137 135.037 15.4629 134.646 15.834C134.275 16.1855 133.816 16.3613 133.27 16.3613H122.312C121.883 16.3613 121.502 16.5078 121.17 16.8008C120.857 17.0938 120.623 17.4746 120.467 17.9434C120.33 18.4121 120.262 18.8711 120.262 19.3203C120.262 19.8086 120.33 20.2871 120.467 20.7559C120.623 21.2246 120.857 21.6055 121.17 21.8984C121.502 22.1719 121.883 22.3184 122.312 22.3379H133.27C133.816 22.3379 134.275 22.5137 134.646 22.8652C135.037 23.2168 135.232 23.6367 135.232 24.125C135.232 24.6328 135.037 25.0625 134.646 25.4141C134.275 25.7656 133.816 25.9414 133.27 25.9414H122.664ZM134.881 19.2324C134.881 19.6035 134.715 19.9258 134.383 20.1992C134.09 20.4531 133.719 20.5801 133.27 20.5801H123.689C123.24 20.5801 122.859 20.4531 122.547 20.1992C122.234 19.9258 122.078 19.6035 122.078 19.2324C122.078 18.8809 122.234 18.5684 122.547 18.2949C122.859 18.041 123.24 17.9141 123.689 17.9141H133.27C133.719 17.9141 134.1 18.0508 134.412 18.3242C134.725 18.5781 134.881 18.8809 134.881 19.2324ZM144.959 8.1875C145.506 8.1875 145.975 8.37305 146.365 8.74414C146.756 9.0957 146.961 9.54492 146.98 10.0918V12.6406H156.941C157.488 12.6406 157.957 12.8262 158.348 13.1973C158.719 13.5879 158.904 14.0566 158.904 14.6035C158.904 15.1504 158.709 15.6191 158.318 16.0098C157.947 16.3809 157.488 16.5664 156.941 16.5664H146.98V17.1523C146.961 17.9531 147.01 18.6953 147.127 19.3789C147.264 20.043 147.576 20.6387 148.064 21.166C148.553 21.6934 149.168 21.9766 149.91 22.0156H157.059C157.605 22.0352 158.055 22.2402 158.406 22.6309C158.777 23.0215 158.963 23.4902 158.963 24.0371C158.943 24.5645 158.748 25.0137 158.377 25.3848C158.025 25.7363 157.586 25.9219 157.059 25.9414H148.914C147.547 25.8633 146.414 25.4043 145.516 24.5645C144.637 23.7051 144.002 22.6602 143.611 21.4297C143.24 20.1992 143.045 18.8906 143.025 17.5039V16.5664H139.656C139.109 16.5664 138.65 16.3711 138.279 15.9805C137.889 15.6094 137.693 15.1504 137.693 14.6035C137.693 14.0566 137.879 13.5977 138.25 13.2266C138.641 12.8359 139.109 12.6406 139.656 12.6406H143.025V10.0918C143.045 9.56445 143.24 9.125 143.611 8.77344C143.982 8.40234 144.432 8.20703 144.959 8.1875Z" fill="white"/>
</svg>
