<svg width="17" height="19" viewBox="0 0 17 19" fill="none" xmlns="http://www.w3.org/2000/svg">
<path d="M5.99998 0V10.55C5.23689 10.1094 4.34968 9.93317 3.47613 10.0486C2.60258 10.164 1.79158 10.5646 1.16907 11.1882C0.546563 11.8118 0.147388 12.6235 0.0335364 13.4973C-0.0803153 14.371 0.0975274 15.2579 0.539446 16.0202C0.981364 16.7825 1.66263 17.3776 2.47744 17.713C3.29225 18.0484 4.195 18.1054 5.04551 17.8751C5.89602 17.6448 6.64668 17.1401 7.18093 16.4393C7.71517 15.7386 8.00309 14.8811 7.99998 14V4H12V0M3.99998 16C3.60442 16 3.21774 15.8827 2.88884 15.6629C2.55994 15.4432 2.3036 15.1308 2.15222 14.7654C2.00085 14.3999 1.96124 13.9978 2.03841 13.6098C2.11558 13.2219 2.30606 12.8655 2.58577 12.5858C2.86547 12.3061 3.22184 12.1156 3.6098 12.0384C3.99776 11.9613 4.3999 12.0009 4.76535 12.1522C5.1308 12.3036 5.44316 12.56 5.66292 12.8889C5.88268 13.2178 5.99998 13.6044 5.99998 14C5.99998 14.5304 5.78927 15.0391 5.41419 15.4142C5.03912 15.7893 4.53041 16 3.99998 16Z" fill="white"/>
<path d="M15.6009 9C15.0521 9.52146 14.3022 9.88466 13.4672 10.0333C13.5196 9.86483 13.5045 9.68753 13.424 9.52618C13.3434 9.36482 13.2014 9.22748 13.0178 9.13331C12.8342 9.03914 12.6181 8.99285 12.3998 9.0009C12.1815 9.00896 11.9718 9.07095 11.7999 9.17823C11.6281 9.28551 11.5028 9.43272 11.4414 9.59931C11.38 9.7659 11.3856 9.94355 11.4575 10.1075C11.5294 10.2714 11.664 10.4134 11.8424 10.5136C12.0208 10.6139 12.2342 10.6674 12.4528 10.6667H12.6207C13.4952 10.6657 14.3497 10.4589 15.0762 10.0722L14.1318 12.3889C13.5911 12.8796 12.8687 13.2219 12.068 13.3667C12.1205 13.1982 12.1054 13.0209 12.0248 12.8595C11.9443 12.6982 11.8023 12.5608 11.6187 12.4666C11.435 12.3725 11.219 12.3262 11.0007 12.3342C10.7823 12.3423 10.5726 12.4043 10.4008 12.5116C10.229 12.6188 10.1036 12.7661 10.0422 12.9326C9.98085 13.0992 9.9865 13.2769 10.0584 13.4408C10.1303 13.6047 10.2649 13.7467 10.4433 13.847C10.6217 13.9472 10.8351 14.0007 11.0537 14H11.2216C12.0961 13.9991 12.9506 13.7922 13.677 13.4056L11.4034 19H12.8026L17 9H15.6009Z" fill="white"/>
</svg>
